<svg width="24" height="24" viewBox="0 0 24 24" fill="none" xmlns="http://www.w3.org/2000/svg">
<circle cx="12" cy="12" r="12" fill="#FFDB06"/>
<path d="M7.98625 18V6.8H12.5943C14.0663 6.8 15.2236 7.12 16.0663 7.76C16.9196 8.38933 17.3463 9.32267 17.3463 10.56C17.3463 11.7867 16.9196 12.72 16.0663 13.36C15.2236 13.9893 14.0663 14.304 12.5943 14.304H9.13825L10.0663 13.344V18H7.98625ZM10.0663 13.568L9.13825 12.624H12.5783C13.4316 12.624 14.0876 12.448 14.5463 12.096C15.0156 11.7333 15.2503 11.2267 15.2503 10.576C15.2503 9.92533 15.0156 9.42933 14.5463 9.088C14.0876 8.736 13.4316 8.56 12.5783 8.56H9.13825L10.0663 7.536V13.568ZM6.38625 16.336V15.216H13.5863V16.336H6.38625Z" fill="#44803F"/>
</svg>
