<svg width="48" height="40" viewBox="0 0 48 40" fill="none" xmlns="http://www.w3.org/2000/svg">
<path d="M44.9109 0.160953L1.01813 17.0768C-0.412399 17.6292 -0.307728 19.6315 1.15769 20.0803L12.3228 23.3254L16.4748 36.4093C16.8935 37.7902 18.6729 38.2044 19.6847 37.1688L25.4417 31.3345L36.7464 39.5508C38.142 40.5519 40.0959 39.7924 40.4448 38.1354L47.9464 2.68107C48.3302 0.954964 46.5856 -0.494968 44.9109 0.160953ZM39.433 8.03201L19.0567 25.88C18.8474 26.0526 18.7078 26.2943 18.7078 26.5704L17.9402 33.4749C17.9053 33.7165 17.5913 33.7165 17.5215 33.5094L14.2767 23.2218C14.1371 22.7385 14.3116 22.2552 14.7302 21.979L38.805 7.20348C39.3283 6.82374 39.9215 7.58323 39.433 8.03201Z" fill="#61A8DE"/>
</svg>
